<?xml version="1.0" encoding="UTF-8" standalone="no"?>
<!-- Created with Inkscape (http://www.inkscape.org/) -->

<svg
   xmlns:dc="http://purl.org/dc/elements/1.1/"
   xmlns:cc="http://creativecommons.org/ns#"
   xmlns:rdf="http://www.w3.org/1999/02/22-rdf-syntax-ns#"
   xmlns:svg="http://www.w3.org/2000/svg"
   xmlns="http://www.w3.org/2000/svg"
   xmlns:sodipodi="http://sodipodi.sourceforge.net/DTD/sodipodi-0.dtd"
   xmlns:inkscape="http://www.inkscape.org/namespaces/inkscape"
   width="156.31274in"
   height="58.439869in"
   viewBox="0 0 4367.3775 1632.8099"
   version="1.1"
   id="svg8442"
   inkscape:version="0.92.3 (2405546, 2018-03-11)"
   sodipodi:docname="wa-logo-path.svg"
   inkscape:export-filename="D:\Cathrin Blank\Logos\wa-logo-60px.png"
   inkscape:export-xdpi="1.1316488"
   inkscape:export-ydpi="1.1316488">
  <defs
     id="defs8436">
    <inkscape:path-effect
       effect="bspline"
       id="path-effect12959"
       is_visible="true"
       weight="33.333333"
       steps="2"
       helper_size="0"
       apply_no_weight="true"
       apply_with_weight="true"
       only_selected="false" />
    <inkscape:path-effect
       effect="bspline"
       id="path-effect12955"
       is_visible="true"
       weight="33.333333"
       steps="2"
       helper_size="0"
       apply_no_weight="true"
       apply_with_weight="true"
       only_selected="false" />
    <inkscape:path-effect
       effect="bspline"
       id="path-effect12951"
       is_visible="true"
       weight="33.333333"
       steps="2"
       helper_size="0"
       apply_no_weight="true"
       apply_with_weight="true"
       only_selected="false" />
  </defs>
  <sodipodi:namedview
     id="base"
     pagecolor="#ffffff"
     bordercolor="#666666"
     borderopacity="1.0"
     inkscape:pageopacity="0"
     inkscape:pageshadow="2"
     inkscape:zoom="0.024266096"
     inkscape:cx="28501.978"
     inkscape:cy="-2537.4696"
     inkscape:document-units="mm"
     inkscape:current-layer="layer1"
     showgrid="false"
     inkscape:pagecheckerboard="true"
     units="in"
     inkscape:showpageshadow="true"
     borderlayer="false"
     inkscape:window-width="1920"
     inkscape:window-height="1017"
     inkscape:window-x="-8"
     inkscape:window-y="-8"
     inkscape:window-maximized="1"
     inkscape:snap-text-baseline="true"
     scale-x="1.1"
     fit-margin-top="0"
     fit-margin-left="0"
     fit-margin-right="0"
     fit-margin-bottom="0"
     showguides="true"
     inkscape:guide-bbox="true" />
  <metadata
     id="metadata8439">
    <rdf:RDF>
      <cc:Work
         rdf:about="">
        <dc:format>image/svg+xml</dc:format>
        <dc:type
           rdf:resource="http://purl.org/dc/dcmitype/StillImage" />
        <dc:title></dc:title>
      </cc:Work>
    </rdf:RDF>
  </metadata>
  <g
     inkscape:label="Ebene 1"
     inkscape:groupmode="layer"
     id="layer1"
     transform="translate(10818.277,2470.2985)">
    <rect
       style="opacity:1;fill:#5aa897;fill-opacity:1;fill-rule:nonzero;stroke:#b3b3b3;stroke-width:1.61448073;stroke-linecap:round;stroke-linejoin:round;stroke-miterlimit:4;stroke-dasharray:none;stroke-opacity:1"
       id="rect4357"
       width="4365.7632"
       height="1631.1953"
       x="-10817.47"
       y="-2469.4912"
       rx="0.82706982"
       ry="0.91532665" />
    <text
       xml:space="preserve"
       style="font-style:normal;font-weight:normal;font-size:10.58333302px;line-height:6.61458302px;font-family:sans-serif;letter-spacing:0px;word-spacing:0px;fill:#000000;fill-opacity:1;stroke:none;stroke-width:0.26458332"
       x="2183.7122"
       y="894.49725"
       id="text12945"><tspan
         sodipodi:role="line"
         id="tspan12943"
         x="2183.7122"
         y="900.55371"
         style="stroke-width:0.26458332" /></text>
    <g
       aria-label="wellaging"
       transform="matrix(0.7715079,0,0,0.7715079,-3581.0538,-4811.2182)"
       style="font-style:normal;font-weight:normal;font-size:40px;line-height:25px;font-family:sans-serif;letter-spacing:0px;word-spacing:0px;opacity:1;fill:#ffffff;fill-opacity:1;stroke:none;stroke-width:74.99598694;stroke-miterlimit:4;stroke-dasharray:none;stroke-dashoffset:0;stroke-opacity:1"
       id="flowRoot4755">
      <path
         d="m -9063.5358,3690.9289 h 156.901 l 64.4532,485.6771 15.625,181.6406 h 5.2083 l 19.5313,-181.6406 85.9375,-485.6771 h 138.6718 l 88.5417,485.6771 24.0885,181.6406 h 5.2084 l 11.0677,-181.6406 56.6406,-485.6771 h 153.6459 l -145.1823,896.4844 H -8534.89 l -93.0989,-498.6979 -20.8334,-137.3698 h -5.2083 l -18.8802,137.3698 -84.6354,498.6979 h -158.2031 z"
         style="font-style:normal;font-variant:normal;font-weight:normal;font-stretch:normal;font-size:1333.33337402px;font-family:'Fjalla One';-inkscape-font-specification:'Fjalla One';fill:#ffffff;stroke:none;stroke-width:74.99598694;stroke-miterlimit:4;stroke-dasharray:none;stroke-dashoffset:0;stroke-opacity:1"
         id="path4338"
         inkscape:connector-curvature="0" />
      <path
         d="m -7913.1451,4597.1789 q -57.9427,0 -102.8646,-21.4844 -44.2709,-21.4843 -74.8698,-67.0572 -30.599,-45.573 -46.224,-116.5365 -15.625,-71.6146 -15.625,-171.875 v -169.2709 q 0,-85.2864 12.3698,-145.8333 13.0209,-61.1979 33.2031,-102.2135 20.8334,-41.6667 47.5261,-65.7552 27.3437,-24.0886 55.9896,-36.4584 28.6458,-13.0208 56.6406,-16.276 28.6458,-3.9063 52.7344,-3.9063 44.2708,0 85.2864,13.6719 41.0157,13.0208 72.2657,45.5729 31.25,31.9011 49.4791,85.9375 18.8802,54.0365 18.8802,134.7657 0,27.3437 -1.9531,55.3385 -1.3021,27.9948 -3.9062,55.3385 -2.6042,26.6927 -7.1615,52.0834 -3.9062,25.3906 -8.4635,46.875 h -297.5261 v 91.1458 q 0,58.5938 4.5573,98.9583 4.5573,39.7136 14.974,64.4532 11.0677,24.0885 29.2968,35.1562 18.8803,10.4167 46.875,10.4167 14.974,0 29.2969,-5.8594 14.3229,-6.5104 24.7396,-20.8333 11.0677,-14.3229 17.5781,-37.7604 6.5104,-24.0886 6.5104,-59.2448 v -27.9948 h 137.3698 v 34.5052 q 0,127.6042 -61.1979,186.1979 -60.5469,57.9427 -175.7812,57.9427 z m 91.1458,-537.7604 q 0.651,-7.1615 1.3021,-18.8802 0.651,-12.3698 0.651,-25.3906 0.6511,-13.0209 0.6511,-25.3907 0,-13.0208 0,-22.1354 0,-88.5417 -20.8334,-127.6042 -20.8333,-39.0625 -61.8489,-39.0625 -21.4844,0 -37.7604,10.4167 -16.2761,9.7656 -26.6928,33.8542 -10.4166,23.4375 -15.625,62.5 -5.2083,39.0625 -5.2083,97.0052 v 54.6875 z"
         style="font-style:normal;font-variant:normal;font-weight:normal;font-stretch:normal;font-size:1333.33337402px;font-family:'Fjalla One';-inkscape-font-specification:'Fjalla One';fill:#ffffff;stroke:none;stroke-width:74.99598694;stroke-miterlimit:4;stroke-dasharray:none;stroke-dashoffset:0;stroke-opacity:1"
         id="path4340"
         inkscape:connector-curvature="0" />
      <path
         d="m -7525.1243,3403.1685 h 164.7135 v 1184.2448 h -164.7135 z"
         style="font-style:normal;font-variant:normal;font-weight:normal;font-stretch:normal;font-size:1333.33337402px;font-family:'Fjalla One';-inkscape-font-specification:'Fjalla One';fill:#ffffff;stroke:none;stroke-width:74.99598694;stroke-miterlimit:4;stroke-dasharray:none;stroke-dashoffset:0;stroke-opacity:1"
         id="path4342"
         inkscape:connector-curvature="0" />
      <path
         d="m -7186.5827,3403.1685 h 164.7136 v 1184.2448 h -164.7136 z"
         style="font-style:normal;font-variant:normal;font-weight:normal;font-stretch:normal;font-size:1333.33337402px;font-family:'Fjalla One';-inkscape-font-specification:'Fjalla One';fill:#ffffff;stroke:none;stroke-width:74.99598694;stroke-miterlimit:4;stroke-dasharray:none;stroke-dashoffset:0;stroke-opacity:1"
         id="path4344"
         inkscape:connector-curvature="0" />
      <path
         d="m -6726.9472,4597.1789 q -41.6666,0 -74.2187,-16.276 -31.9011,-16.9271 -54.0365,-45.5729 -22.1354,-28.6459 -33.8542,-67.7084 -11.0677,-39.7135 -11.0677,-85.9375 0,-55.3385 13.6719,-98.3073 13.6719,-42.9687 39.7136,-77.4739 26.6927,-34.5052 65.7552,-62.5 39.0625,-28.6459 90.4948,-54.0365 24.7395,-12.3698 55.3385,-24.7396 31.25,-13.0208 55.3385,-22.1354 v -118.4896 q 0,-26.0416 -1.9531,-48.1771 -1.9531,-22.7864 -9.7656,-39.0625 -7.1615,-16.9271 -22.1354,-26.0416 -14.974,-9.7657 -41.0157,-9.7657 -17.5781,0 -34.5052,6.5105 -16.276,6.5104 -29.2968,22.1354 -12.3698,15.625 -20.1823,41.6666 -7.1615,26.0417 -7.1615,64.4532 v 39.0625 h -125.651 q -5.8594,-25.3907 -9.1146,-46.224 -2.6042,-21.4844 -2.6042,-42.3177 0,-50.1302 16.9271,-88.5417 17.5781,-38.4114 48.1771,-64.4531 31.25,-26.0417 74.2187,-39.0625 42.9688,-13.6719 94.4011,-13.6719 67.0573,0 111.3281,14.974 44.2708,14.3229 70.3125,43.6198 26.6927,29.2969 37.1094,73.5677 11.0677,44.2708 11.0677,103.5156 v 671.224 h -122.3958 l -11.7188,-76.8229 q -26.6927,38.4114 -71.6146,62.5 -44.2708,24.0885 -101.5625,24.0885 z m 72.9167,-126.9531 q 20.8333,0 40.3646,-10.4167 20.1823,-11.0677 33.8541,-26.6927 v -280.5989 q -13.0208,5.2083 -29.2968,12.3697 -16.2761,7.1615 -35.1563,18.8803 -17.5781,11.0677 -34.5052,26.6927 -16.9271,15.625 -30.599,37.1093 -13.0208,21.4844 -21.4843,48.8282 -7.8125,26.6927 -7.8125,59.8958 0,51.4323 20.1823,82.6823 20.1823,31.25 64.4531,31.25 z"
         style="stroke:#ffffff;stroke-width:74.99598694;stroke-miterlimit:4;stroke-dasharray:none"
         id="path4346"
         inkscape:connector-curvature="0" />
      <path
         d="m -6114.968,4648.6112 q 0,57.9427 21.4844,82.0313 21.4843,24.0885 66.4062,24.0885 18.2292,0 35.1563,-5.8594 16.9271,-5.2083 29.2968,-20.1823 13.0209,-14.3229 20.8334,-40.3645 7.8125,-26.0417 7.8125,-67.0573 v -141.2761 q -22.1354,28.6459 -57.2917,49.4792 -34.5052,20.1823 -85.9375,20.1823 -14.974,0 -35.1562,-2.6042 -20.1823,-3.2552 -41.6667,-13.6719 -21.4844,-10.4166 -42.3177,-31.25 -20.8334,-21.4843 -37.1094,-57.2916 -16.276,-35.8073 -26.6927,-89.1927 -9.7656,-54.0365 -9.7656,-130.2084 V 3989.757 q 0,-72.9166 9.7656,-123.6979 10.4167,-51.4323 26.6927,-85.9375 16.276,-34.5052 37.1094,-54.0365 21.4844,-19.5312 42.9687,-29.2968 22.1354,-10.4167 42.9688,-13.0209 20.8333,-2.6041 37.1094,-2.6041 32.552,0 57.2916,8.4635 25.3907,8.4636 43.6198,22.7865 18.8802,13.6718 31.9011,31.25 13.0208,17.5781 22.1354,35.1562 l 14.9739,-88.5416 h 128.2552 v 860.6771 q 0,74.8698 -14.3229,134.7656 -14.3229,60.5469 -44.9218,102.8646 -30.599,42.9687 -78.125,65.7552 -46.875,22.7864 -112.6303,22.7864 -44.2708,0 -83.3333,-7.8125 -39.0625,-7.8125 -68.3594,-27.9947 -29.2968,-19.5313 -46.2239,-54.0365 -16.9271,-33.8542 -16.9271,-86.5885 0,-9.1146 1.9531,-22.7865 1.9531,-13.6719 6.5104,-29.2969 z m 93.75,-226.5625 q 16.276,0 28.6458,-5.2083 13.0209,-5.8594 22.7865,-14.974 10.4167,-9.1146 17.5781,-20.8333 7.8125,-11.7188 13.0208,-24.0886 v -490.2343 q -12.3697,-27.3438 -33.2031,-46.224 -20.1823,-19.5313 -49.4791,-19.5313 -18.2292,0 -33.2032,6.5105 -14.9739,6.5104 -26.0416,24.7395 -11.0678,17.5782 -17.5782,49.4792 -5.8593,31.25 -5.8593,81.3802 v 294.9219 q 0,50.1302 5.8593,82.0313 6.5104,31.901 17.5782,50.1302 11.0677,18.2291 26.0416,25.3906 15.625,6.5104 33.8542,6.5104 z"
         style="stroke:#ffffff;stroke-width:74.99598694;stroke-miterlimit:4;stroke-dasharray:none"
         id="path4348"
         inkscape:connector-curvature="0" />
      <path
         d="m -5515.3587,3562.6737 q -45.5729,0 -72.2656,-27.3438 -26.0417,-27.3437 -26.0417,-80.0781 0,-29.2969 6.5104,-48.8281 7.1615,-20.1823 19.5313,-31.9011 13.0208,-12.3698 31.25,-17.5781 18.2291,-5.8594 41.6666,-5.8594 48.8281,0 74.2188,24.7396 25.3906,24.7396 25.3906,79.4271 0,50.7813 -26.0417,79.4271 -25.3906,27.9948 -74.2187,27.9948 z m -85.2865,128.2552 h 164.7136 v 896.4844 h -164.7136 z"
         style="stroke:#ffffff;stroke-width:74.99598694;stroke-miterlimit:4;stroke-dasharray:none"
         id="path4350"
         inkscape:connector-curvature="0" />
      <path
         d="m -5264.7076,3690.9289 h 126.9531 l 14.974,95.7031 v 0.6511 q 19.5312,-30.599 41.6667,-50.7813 22.7864,-20.8333 46.875,-33.2031 24.0885,-12.3698 48.8281,-17.5781 25.3906,-5.2084 50.1302,-5.2084 78.776,0 121.0937,55.3386 42.9688,54.6875 42.9688,164.7135 v 686.849 h -164.7135 v -680.9896 q 0,-59.2448 -18.2292,-82.0313 -18.2292,-23.4375 -53.3854,-23.4375 -24.7396,0 -49.4792,16.2761 -24.0885,16.276 -42.9688,44.9219 v 725.2604 h -164.7135 z"
         style="stroke:#ffffff;stroke-width:74.99598694;stroke-miterlimit:4;stroke-dasharray:none"
         id="path4352"
         inkscape:connector-curvature="0" />
      <path
         d="m -4466.5303,4648.6112 q 0,57.9427 21.4844,82.0313 21.4844,24.0885 66.4063,24.0885 18.2291,0 35.1562,-5.8594 16.9271,-5.2083 29.2969,-20.1823 13.0208,-14.3229 20.8333,-40.3645 7.8125,-26.0417 7.8125,-67.0573 v -141.2761 q -22.1354,28.6459 -57.2916,49.4792 -34.5053,20.1823 -85.9375,20.1823 -14.974,0 -35.1563,-2.6042 -20.1823,-3.2552 -41.6667,-13.6719 -21.4843,-10.4166 -42.3177,-31.25 -20.8333,-21.4843 -37.1094,-57.2916 -16.276,-35.8073 -26.6927,-89.1927 -9.7656,-54.0365 -9.7656,-130.2084 V 3989.757 q 0,-72.9166 9.7656,-123.6979 10.4167,-51.4323 26.6927,-85.9375 16.2761,-34.5052 37.1094,-54.0365 21.4844,-19.5312 42.9688,-29.2968 22.1354,-10.4167 42.9687,-13.0209 20.8334,-2.6041 37.1094,-2.6041 32.5521,0 57.2917,8.4635 25.3906,8.4636 43.6198,22.7865 18.8802,13.6718 31.901,31.25 13.0208,17.5781 22.1354,35.1562 l 14.974,-88.5416 h 128.2552 v 860.6771 q 0,74.8698 -14.3229,134.7656 -14.3229,60.5469 -44.9219,102.8646 -30.599,42.9687 -78.125,65.7552 -46.875,22.7864 -112.6302,22.7864 -44.2708,0 -83.3333,-7.8125 -39.0626,-7.8125 -68.3594,-27.9947 -29.2969,-19.5313 -46.224,-54.0365 -16.9271,-33.8542 -16.9271,-86.5885 0,-9.1146 1.9532,-22.7865 1.9531,-13.6719 6.5104,-29.2969 z m 93.75,-226.5625 q 16.2761,0 28.6459,-5.2083 13.0208,-5.8594 22.7864,-14.974 10.4167,-9.1146 17.5782,-20.8333 7.8125,-11.7188 13.0208,-24.0886 v -490.2343 q -12.3698,-27.3438 -33.2031,-46.224 -20.1823,-19.5313 -49.4792,-19.5313 -18.2292,0 -33.2031,6.5105 -14.974,6.5104 -26.0417,24.7395 -11.0677,17.5782 -17.5781,49.4792 -5.8594,31.25 -5.8594,81.3802 v 294.9219 q 0,50.1302 5.8594,82.0313 6.5104,31.901 17.5781,50.1302 11.0677,18.2291 26.0417,25.3906 15.625,6.5104 33.8541,6.5104 z"
         style="stroke:#ffffff;stroke-width:74.99598694;stroke-miterlimit:4;stroke-dasharray:none"
         id="path4354"
         inkscape:connector-curvature="0" />
    </g>
  </g>
</svg>
